<svg width="40" height="40" viewBox="0 0 40 40" xmlns="http://www.w3.org/2000/svg">
  <defs>
    <linearGradient id="cloudflare-bg" x1="0%" y1="0%" x2="100%" y2="100%">
      <stop offset="0%" style="stop-color:#ffffff;stop-opacity:1" />
      <stop offset="100%" style="stop-color:#f8f8f8;stop-opacity:1" />
    </linearGradient>
  </defs>
  <!-- Background -->
  <rect width="40" height="40" rx="8" ry="8" fill="url(#cloudflare-bg)" stroke="#e0e0e0" stroke-width="0.5"/>
  
  <!-- Cloudflare Logo Elements -->
  <!-- Orange cloud shape -->
  <path d="M28 18.5 C29.5 18.5, 30.5 19.5, 30.5 21 C30.5 22.5, 29.5 23.5, 28 23.5 L15 23.5 C13 23.5, 11.5 22, 11.5 20 C11.5 18, 13 16.5, 15 16.5 C15.5 15, 17 14, 18.5 14 C20.5 14, 22 15.5, 22 17.5 C23 17, 24.5 17, 25.5 17.5 C26.5 17.8, 27.5 18, 28 18.5 Z" fill="#F48120"/>
  
  <!-- Small accent elements -->
  <circle cx="25" cy="20" r="0.8" fill="#FAAD3F"/>
  <circle cx="27" cy="21" r="0.6" fill="#FAAD3F"/>
  
  <!-- CLOUDFLARE text (simplified) -->
  <text x="20" y="30" font-family="Arial, sans-serif" font-size="4" font-weight="bold" text-anchor="middle" fill="#333">CLOUDFLARE</text>
</svg>
