<svg width="127" height="30" viewBox="0 0 127 30" fill="none" xmlns="http://www.w3.org/2000/svg">
<path d="M56.5372 24.5401H42.271V5.75339H56.4784V9.18783H46.087V13.4148H55.6565V16.7906H46.087V21.0469H56.5372V24.5401Z" fill="#142032"/>
<path d="M71.5377 14.9412C72.389 15.0586 73.1522 15.499 73.8274 16.2622C74.5025 17.0254 74.8254 18.0528 74.8254 19.315C74.8254 20.9001 74.3264 22.1624 73.299 23.1017C72.2716 24.0704 70.7745 24.5401 68.7491 24.5401H59.4731V5.75336H68.7197C70.3929 5.75336 71.7432 6.22302 72.7413 7.19171C73.7393 8.13105 74.2677 9.39328 74.2677 10.9784C74.2677 12.0645 73.9741 12.9451 73.3871 13.6496C72.8 14.3541 72.1835 14.7358 71.5084 14.8532V14.9412H71.5377ZM63.2892 13.5909H68.0446C68.8078 13.5909 69.4242 13.3855 69.8939 12.9451C70.3636 12.5048 70.569 11.9177 70.569 11.1839C70.569 10.5381 70.3636 10.0391 69.9233 9.62812C69.4829 9.21716 68.9546 9.01168 68.3088 9.01168H63.2892V13.5909ZM68.3381 21.2817C69.1894 21.2817 69.8058 21.0763 70.2462 20.6653C70.6865 20.2543 70.8919 19.6673 70.8919 18.9628C70.8919 18.2583 70.6571 17.7005 70.2168 17.2602C69.7765 16.8493 69.1894 16.6438 68.4555 16.6438H63.2598V21.2817H68.3381Z" fill="#142032"/>
<path d="M90.5003 12.2406C91.8799 13.6496 92.5551 15.4109 92.5551 17.5537C92.5551 19.6966 91.8799 21.4578 90.5003 22.8375C89.15 24.2465 87.5355 24.951 85.6862 24.951C83.8662 24.951 82.3104 24.452 81.0775 23.4246V29.2661H77.3789V10.5381H81.0775V11.6535C82.3104 10.6261 83.8368 10.0978 85.6862 10.0978C87.5355 10.1271 89.15 10.8316 90.5003 12.2406ZM87.8877 20.6066C88.6216 19.8434 89.0032 18.8453 89.0032 17.5537C89.0032 16.2915 88.6216 15.2641 87.8877 14.5009C87.1539 13.7377 86.2145 13.3561 85.0697 13.3561C84.013 13.3561 83.103 13.7377 82.3104 14.5303C81.5179 15.3228 81.1069 16.3209 81.1069 17.5537C81.1069 18.7866 81.5179 19.7847 82.3104 20.5772C83.103 21.3404 84.0423 21.7514 85.0697 21.7514C86.1852 21.722 87.1245 21.3404 87.8877 20.6066Z" fill="#142032"/>
<path d="M108.875 24.54H105.177V23.4539C103.914 24.452 102.388 24.9804 100.568 24.9804C98.7188 24.9804 97.1043 24.2759 95.754 22.8668C94.4037 21.4578 93.6992 19.6966 93.6992 17.5831C93.6992 15.4696 94.3744 13.679 95.754 12.27C97.1337 10.861 98.7188 10.1565 100.568 10.1565C102.417 10.1565 103.944 10.6555 105.177 11.7122V10.5968H108.875V24.54ZM103.973 20.5772C104.766 19.814 105.177 18.7866 105.177 17.5537C105.177 16.3209 104.766 15.3228 103.973 14.5302C103.181 13.7377 102.241 13.3561 101.214 13.3561C100.069 13.3561 99.1298 13.7377 98.3959 14.5009C97.662 15.2641 97.2804 16.2915 97.2804 17.5537C97.2804 18.816 97.662 19.8434 98.3959 20.6066C99.1298 21.3698 100.069 21.7514 101.214 21.7514C102.241 21.722 103.181 21.3404 103.973 20.5772Z" fill="#142032"/>
<path d="M118.24 29.2955H114.131L116.361 24.0704L110.549 10.5088H114.659L118.358 19.4324L122.232 10.5088H126.342L118.24 29.2955Z" fill="#142032"/>
<path d="M17.73 23.3953H8.92369C7.80823 23.3953 6.9276 22.4853 6.9276 21.3992V18.2877H14.6771L12.7397 15L14.6771 11.7123H6.9276V8.57143C6.9276 7.45597 7.83758 6.57535 8.92369 6.57535H17.7006L21.5754 0H20.8709H9.04111C4.05089 0 0 4.05088 0 9.0411V20.9296C0 25.9198 4.05089 29.9707 9.04111 29.9707H21.6047L17.73 23.3953Z" fill="url(#paint0_linear_567_886)"/>
<path d="M34.1683 9.15857C34.1683 4.10964 30.0881 0.0294037 25.0391 0.0294037H23.1311L19.227 6.5754H25.0391C26.8591 6.5754 28.2387 8.48342 27.2994 10.4208C26.8884 11.2721 25.9785 11.7417 25.0391 11.7124H19.4618H16.2035L14.2661 15.0001L16.2035 18.2877H19.4618H25.0098C26.8297 18.2877 28.2094 20.1958 27.27 22.1331C26.8591 22.9844 25.9491 23.4541 25.0098 23.4247H22.7201H19.2563L23.1604 30.0001H23.953H25.0391H25.6262V29.9707C30.4109 29.6772 34.1976 25.7143 34.1976 20.8709C34.1976 18.64 33.4051 16.6145 32.0841 15.0294C33.3757 13.4149 34.1683 11.3601 34.1683 9.15857Z" fill="url(#paint1_linear_567_886)"/>
<path d="M9.42271 26.8004C5.98827 26.8004 3.19961 24.0118 3.19961 20.5773V9.39335C3.19961 5.95891 5.98827 3.17026 9.42271 3.17026H19.7261L21.6047 0H20.9002H9.04111C4.05089 0 0 4.05088 0 9.0411V20.9296C0 25.9198 4.05089 29.9707 9.04111 29.9707H21.6047L19.7261 26.8004H9.42271Z" fill="url(#paint2_linear_567_886)"/>
<path d="M34.1683 9.15857C34.1683 4.10964 30.0881 0.0294037 25.0391 0.0294037H23.1311L19.227 6.5754H19.9902C20.9295 4.75543 22.8082 3.4932 25.0098 3.4932C28.1213 3.4932 30.6458 6.01767 30.6458 9.12921C30.6458 12.2408 28.1213 14.7652 25.0098 14.7652C22.8082 14.7652 20.9295 13.503 19.9902 11.683H19.4618H16.2035L14.2661 14.9707L16.2035 18.2877H19.4618H20.4012C21.3405 16.4971 23.2192 15.2642 25.3914 15.2642C28.4736 15.2642 30.998 17.7887 30.998 20.8709C30.998 23.9531 28.4736 26.4776 25.3914 26.4776C23.2192 26.4776 21.3405 25.2447 20.4012 23.4247H19.2563L23.1604 30.0001H23.953H25.0391H25.6262V29.9707C30.4109 29.6772 34.1976 25.7143 34.1976 20.8709C34.1976 18.64 33.4051 16.6145 32.0841 15.0294C33.3757 13.4149 34.1683 11.3601 34.1683 9.15857Z" fill="url(#paint3_linear_567_886)"/>
<defs>
<linearGradient id="paint0_linear_567_886" x1="29.8655" y1="2.75043" x2="-2.44637" y2="27.3806" gradientUnits="userSpaceOnUse">
<stop stop-color="#0093FC"/>
<stop offset="1" stop-color="#034CFE"/>
</linearGradient>
<linearGradient id="paint1_linear_567_886" x1="10.9433" y1="14.1643" x2="29.0306" y2="15.2906" gradientUnits="userSpaceOnUse">
<stop stop-color="#0FC3FF"/>
<stop offset="1" stop-color="#1D94FF"/>
</linearGradient>
<linearGradient id="paint2_linear_567_886" x1="5.07808" y1="14.4757" x2="-1.17191" y2="14.1568" gradientUnits="userSpaceOnUse">
<stop stop-color="#0076FF" stop-opacity="0.4"/>
<stop offset="1" stop-color="#79E0FF"/>
</linearGradient>
<linearGradient id="paint3_linear_567_886" x1="33.7816" y1="14.9921" x2="27.3647" y2="14.9921" gradientUnits="userSpaceOnUse">
<stop offset="1.06556e-07" stop-color="#3ACEFF"/>
<stop offset="1" stop-color="#1D94FF" stop-opacity="0"/>
</linearGradient>
</defs>
</svg>
